<?xml version="1.0" standalone="no"?>
<!DOCTYPE svg PUBLIC "-//W3C//DTD SVG 20010904//EN"
 "http://www.w3.org/TR/2001/REC-SVG-20010904/DTD/svg10.dtd">
<svg version="1.0" xmlns="http://www.w3.org/2000/svg"
 width="256.000000pt" height="256.000000pt" viewBox="0 0 256.000000 256.000000"
 preserveAspectRatio="xMidYMid meet">
<metadata>
Created by potrace 1.11, written by Peter Selinger 2001-2013
</metadata>
<g transform="translate(0.000000,256.000000) scale(0.100000,-0.100000)"
fill="#000000" stroke="none">
<path d="M118 2270 c-45 -24 -95 -84 -108 -130 -13 -47 -13 -1673 0 -1720 13
-47 63 -106 111 -130 37 -20 63 -20 1159 -20 1096 0 1122 0 1159 20 48 24 98
83 111 130 13 47 13 1673 0 1720 -13 47 -63 106 -111 130 -37 20 -63 20 -1161
20 -1090 -1 -1124 -1 -1160 -20z m2307 -90 c41 -37 55 -81 55 -165 l0 -75
-1200 0 -1200 0 0 74 c0 41 5 87 11 103 13 34 47 72 74 84 11 4 518 7 1127 6
l1106 -2 27 -25z m55 -1015 c0 -753 1 -733 -55 -785 l-27 -25 -1118 0 -1118 0
-27 25 c-56 52 -55 32 -55 785 l0 695 1200 0 1200 0 0 -695z"/>
<path d="M236 2104 c-9 -8 -16 -22 -16 -29 0 -18 39 -45 65 -45 26 0 65 27 65
45 0 24 -30 45 -65 45 -18 0 -41 -7 -49 -16z"/>
<path d="M416 2107 c-27 -19 -17 -58 17 -70 60 -20 111 19 81 61 -17 25 -70
30 -98 9z"/>
<path d="M592 2108 c-7 -7 -12 -22 -12 -35 0 -53 111 -55 118 -3 3 14 -3 29
-14 37 -22 16 -76 17 -92 1z"/>
<path d="M1409 1493 c-226 -525 -351 -837 -342 -852 14 -23 46 -25 65 -4 8 10
95 209 193 442 187 447 189 452 131 459 -23 3 -29 -3 -47 -45z"/>
<path d="M807 1383 c-207 -234 -227 -258 -227 -280 0 -14 58 -88 162 -207 169
-193 194 -212 218 -165 15 26 14 27 -154 218 l-135 155 58 65 c178 202 241
277 241 288 0 16 -28 43 -45 43 -8 0 -61 -53 -118 -117z"/>
<path d="M1606 1485 c-9 -9 -16 -22 -16 -28 0 -11 63 -86 241 -288 l58 -65
-135 -155 c-168 -191 -169 -192 -154 -218 24 -47 49 -28 218 165 103 118 162
193 162 207 0 25 -315 390 -341 395 -9 2 -24 -4 -33 -13z"/>
</g>
</svg>
